PathFileType	4	(X/Y/Z)	14_coords_data.trc
DataRate	CameraRate	NumFrames	NumMarkers	Units	OrigDataRate	OrigDataStartFrame	OrigNumFrames
30.0	30.0	5	21	m	30.0	32	62
Frame#	Time	THUMB_TIP	THUMB_IP	THUMB_MCP	THUMB_CMC	INDEX_TIP	INDEX_DIP	INDEX_PIP	INDEX_MCP	MIDDLE_TIP	MIDDLE_DIP	MIDDLE_PIP	MIDDLE_MCP	RING_TIP	RING_DIP	RING_PIP	RING_MCP	PINKY_TIP	PINKY_DIP	PINKY_PIP	PINKY_MCP	WRIST
X1	Y1	Z1	X2	Y2	Z2	X3	Y3	Z3	X4	Y4	Z4	X5	Y5	Z5	X6	Y6	Z6	X7	Y7	Z7	X8	Y8	Z8	X9	Y9	Z9	X10	Y10	Z10	X11	Y11	Z11	X12	Y12	Z12	X13	Y13	Z13	X14	Y14	Z14	X15	Y15	Z15	X16	Y16	Z16	X17	Y17	Z17	X18	Y18	Z18	X19	Y19	Z19	X20	Y20	Z20	X21	Y21	Z21
31	1.0333333333333334	-0.03242649841308594	-0.03869879913330078	0.943739013671875	-0.018959100723266602	-0.018898399353027343	0.9561939697265625	-0.015541000366210938	-0.005431119918823242	0.981218994140625	-0.015185799598693848	0.022671100616455078	1.002739990234375	0.03520199966430664	0.028187999725341795	0.9541729736328125	0.03002429962158203	0.027035600662231447	0.9354450073242188	0.012633899688720703	0.024291999816894533	0.9205960083007813	-0.016747600555419923	0.02006559944152832	0.9450360107421875	0.035421798706054684	0.043162899017333986	0.959916015625	0.033969200134277344	0.04965909957885742	0.9415170288085938	0.015509900093078613	0.05221670150756836	0.9223980102539062	-0.02038400077819824	0.04487850189208984	0.9412670288085937	0.03336750030517578	0.058853199005126956	0.9660800170898437	0.029334699630737305	0.06685800170898437	0.9497890014648438	0.010720299720764161	0.07281819915771484	0.9316939697265625	-0.022406099319458007	0.06517500305175782	0.949364013671875	0.021837099075317383	0.07462550354003906	0.9725969848632813	0.01796150016784668	0.0838572998046875	0.9606439819335938	0.00377020001411438	0.08850160217285157	0.9507169799804688	-0.02059079933166504	0.08118009948730469	0.96177001953125	-0.039385398864746096	0.045976001739501955	1.0183800048828124
32	1.0666666666666667	-0.02982279968261719	-0.03859809875488281	0.9447620239257812	-0.016981800079345702	-0.019430200576782228	0.958291015625	-0.015503199577331542	-0.006338890075683594	0.983635009765625	-0.016327600479125976	0.02145210075378418	1.0046400146484376	0.04999250030517578	0.024958599090576173	0.9327769775390625	0.033880401611328125	0.022469499588012695	0.9208159790039062	0.012078499794006348	0.019853399276733397	0.9173829956054688	-0.012583900451660156	0.018811399459838868	0.946927001953125	0.05804660034179687	0.04966460037231445	0.931989013671875	0.040501201629638675	0.05214659881591797	0.9203280029296875	0.013929800033569336	0.05113410186767578	0.9156799926757813	-0.015563799858093261	0.04338249969482422	0.943281005859375	0.05326580047607422	0.06638369750976562	0.93793701171875	0.03584659957885742	0.0703739013671875	0.928969970703125	0.0104375	0.0713594970703125	0.9258090209960937	-0.01649410057067871	0.06336780166625977	0.9504420166015625	0.036875400543212894	0.08888629913330078	0.9515419921875	0.021518800735473635	0.09194200134277344	0.945260009765625	0.004440820217132569	0.08980380249023437	0.94577001953125	-0.01304189968109131	0.08010530090332031	0.9622210083007813	-0.04038420104980469	0.04550019836425781	1.01925
33	1.1	-0.026963300704956054	-0.03776739883422851	0.9450800170898438	-0.014924200057983398	-0.01951420021057129	0.9602249755859374	-0.015428500175476074	-0.006749549865722656	0.98589501953125	-0.016933900833129883	0.020556299209594727	1.0066300048828125	0.052028701782226565	0.016796499252319335	0.9118510131835937	0.03145229911804199	0.016401899337768554	0.910405029296875	0.010309399604797364	0.016251199722290038	0.9169010009765625	-0.008818070411682128	0.018022600173950194	0.9489550170898438	0.0615880012512207	0.052335098266601564	0.9038699951171875	0.03923609924316406	0.0521797981262207	0.9057540283203125	0.013555000305175782	0.04930070114135742	0.9149089965820313	-0.010120400428771973	0.04213539886474609	0.9460499877929688	0.05732529830932617	0.06988629913330079	0.9142589721679687	0.036311599731445314	0.07091950225830078	0.9178740234375	0.012553500175476075	0.06949839782714844	0.926760009765625	-0.009549240112304687	0.061612499237060546	0.9531329956054687	0.040443099975585935	0.09845169830322266	0.9362150268554688	0.023363100051879884	0.09494509887695313	0.9405859985351562	0.008983019828796387	0.08934600067138672	0.9480369873046876	-0.0056799502372741695	0.07781169891357421	0.9654569702148438	-0.04095709991455078	0.045611499786376956	1.0200900268554687
34	1.1333333333333333	-0.022430700302124025	-0.038110801696777344	0.9457849731445312	-0.011984100341796875	-0.020123199462890626	0.962323974609375	-0.014867199897766113	-0.007298970222473143	0.9878699951171875	-0.01732279968261719	0.02003689956665039	1.00827001953125	0.04757469940185547	0.0131850004196167	0.9013790283203125	0.027333000183105468	0.014491499900817871	0.9060800170898438	0.008158690452575683	0.015667200088500977	0.9172760009765625	-0.007033430099487305	0.01782419967651367	0.9506959838867187	0.057506900787353515	0.053715198516845704	0.8914630126953125	0.036474300384521485	0.0523828010559082	0.9010770263671875	0.013521699905395508	0.04867250061035156	0.916083984375	-0.007380859851837158	0.04165399932861328	0.9484320068359375	0.05508420181274414	0.07236009979248047	0.904780029296875	0.03546329879760742	0.0717291030883789	0.9150889892578125	0.014416199684143066	0.06895960235595704	0.9289450073242187	-0.0054504299163818356	0.06078979873657227	0.956073974609375	0.040128299713134766	0.10228099822998046	0.9331019897460937	0.024968299865722656	0.09607039642333984	0.9418930053710938	0.012437899589538575	0.0891322021484375	0.9513579711914063	-0.001244580030441284	0.07651439666748047	0.9692459716796875	-0.041278099060058596	0.04557310104370117	1.0215999755859375
35	1.1666666666666667	-0.015916600227355956	-0.038881999969482425	0.9464130249023438	-0.00819381046295166	-0.020627300262451173	0.964166015625	-0.014067500114440919	-0.007739160060882568	0.9892849731445312	-0.017744699478149415	0.019718399047851564	1.0095499877929688	0.04554650115966797	0.01331599998474121	0.898135009765625	0.025928899765014647	0.014897999763488769	0.9053259887695313	0.0077200899124145505	0.01619230079650879	0.918093017578125	-0.006474770069122314	0.017938899993896484	0.9517429809570312	0.054563701629638674	0.0555625	0.887822998046875	0.034762500762939456	0.05332070159912109	0.9000889892578126	0.013500699996948242	0.049037101745605466	0.9173569946289063	-0.006564799785614014	0.04153969955444336	0.9498720092773437	0.05281470108032227	0.0739188003540039	0.90210302734375	0.03437360000610352	0.07237429809570313	0.91493798828125	0.014833399772644043	0.06908930206298829	0.93077001953125	-0.004113150119781494	0.06053469848632813	0.9578889770507812	0.0402046012878418	0.10287300109863282	0.9337579956054688	0.025663000106811523	0.09612539672851562	0.943655029296875	0.013715100288391114	0.08888040161132812	0.9535050048828125	0.00011773400008678402	0.07582430267333984	0.97097998046875	-0.04148640060424805	0.04529259872436524	1.0222000122070312
